<svg width="24" height="24" viewBox="0 0 24 24" fill="none" xmlns="http://www.w3.org/2000/svg">
  <rect width="24" height="24" rx="6" fill="#2563EB"/>
  <path d="M15 15.5C15 14.12 16.12 13 17.5 13C18.88 13 20 14.12 20 15.5C20 16.88 18.88 18 17.5 18C16.12 18 15 16.88 15 15.5ZM8 18C6.95 18 5.91 17.78 5 17.34V19C5 19.55 5.45 20 6 20H13.09C13.03 19.67 13 19.34 13 19C13 15.69 15.69 13 19 13C19.34 13 19.67 13.03 20 13.09V9C20 8.45 19.55 8 19 8H17C17 5.79 15.21 4 13 4C10.79 4 9 5.79 9 8H7C6.45 8 6 8.45 6 9V14.68C6.91 14.9 8 15.5 8 17V18ZM15 8C15 6.9 14.1 6 13 6C11.9 6 11 6.9 11 8C11 9.1 11.9 10 13 10C14.1 10 15 9.1 15 8Z" fill="white"/>
</svg>